<svg width="70"
     height="70"
     viewBox="0 0 70 70"
     fill="none"
     xmlns="http://www.w3.org/2000/svg">
    <path
        d="M34.8105 11.4654L19.6044 24.0669C18.4625 25.0148 16.6527 25.6667 15.1682 25.6667H11.6711C11.2879 25.6661 10.9084 25.741 10.5543 25.8871C10.2001 26.0333 9.87815 26.2478 9.60689 26.5184C9.33563 26.7889 9.12034 27.1103 8.97331 27.4641C8.82629 27.8179 8.75042 28.1973 8.75004 28.5804V41.3933C8.75004 42.9975 10.0611 44.3071 11.6711 44.3071H15.1667C16.6571 44.3071 18.4596 44.959 19.603 45.9069L34.8075 58.5069V11.4669L34.8105 11.4654ZM17.7421 48.1542C17.1238 47.6408 15.9805 47.2252 15.1667 47.2252H11.6711C10.124 47.2248 8.64022 46.6105 7.54569 45.517C6.45115 44.4236 5.83531 42.9405 5.83337 41.3933V28.5804C5.83376 27.8142 5.98507 27.0557 6.27867 26.348C6.57226 25.6403 7.00239 24.9974 7.5445 24.456C8.0866 23.9145 8.73004 23.4852 9.43809 23.1925C10.1461 22.8998 10.9049 22.7494 11.6711 22.75H15.1667C15.9717 22.75 17.1238 22.3344 17.7421 21.821L35.4871 7.11666C36.7238 6.09145 37.7257 6.55812 37.7257 8.16958V61.8071C37.7257 63.4127 36.7223 63.8837 35.4871 62.86L17.7436 48.1527L17.7421 48.1542ZM47.5548 47.8246C47.403 47.9414 47.2296 48.0272 47.0446 48.077C46.8595 48.1268 46.6665 48.1397 46.4765 48.1149C46.0928 48.0648 45.7447 47.8644 45.5088 47.5577C45.2729 47.251 45.1684 46.8631 45.2185 46.4794C45.2685 46.0957 45.469 45.7476 45.7757 45.5117C47.4153 44.2555 48.7432 42.6383 49.6565 40.7857C50.5698 38.933 51.0438 36.8949 51.0417 34.8294C51.0417 30.905 49.0409 27.1512 45.745 24.4635C45.5966 24.3425 45.4735 24.1934 45.3827 24.0248C45.2919 23.8562 45.2352 23.6713 45.2158 23.4808C45.1964 23.2903 45.2148 23.0978 45.2698 22.9143C45.3248 22.7309 45.4155 22.5601 45.5365 22.4117C45.6575 22.2632 45.8066 22.1401 45.9752 22.0493C46.1439 21.9585 46.3287 21.9018 46.5192 21.8824C46.7098 21.8631 46.9023 21.8814 47.0857 21.9364C47.2691 21.9915 47.44 22.0821 47.5884 22.2031C51.5288 25.4158 53.9584 29.9746 53.9584 34.8294C53.9584 39.9817 51.5623 44.7402 47.5563 47.8231L47.5548 47.8246ZM51.9298 59.4912C51.6231 59.7272 51.2352 59.8316 50.8515 59.7816C50.4678 59.7315 50.1197 59.5311 49.8838 59.2244C49.6479 58.9177 49.5434 58.5298 49.5935 58.1461C49.6435 57.7624 49.844 57.4143 50.1507 57.1783C53.6064 54.5299 56.4054 51.1208 58.3303 47.2156C60.2552 43.3103 61.2543 39.0141 61.25 34.6602C61.25 26.3448 57.0325 18.4348 50.12 12.7969C49.9716 12.6758 49.8485 12.5267 49.7577 12.3581C49.6669 12.1895 49.6102 12.0047 49.5908 11.8141C49.5714 11.6236 49.5898 11.4311 49.6448 11.2477C49.6998 11.0642 49.7905 10.8934 49.9115 10.745C50.0325 10.5966 50.1816 10.4734 50.3502 10.3826C50.5189 10.2918 50.7037 10.2351 50.8942 10.2158C51.0848 10.1964 51.2773 10.2148 51.4607 10.2698C51.6441 10.3248 51.815 10.4154 51.9634 10.5365C59.5205 16.7008 64.1667 25.4144 64.1667 34.6602C64.1712 39.4606 63.0698 44.1975 60.9479 48.5035C58.826 52.8095 55.7407 56.5688 51.9313 59.4898L51.9298 59.4912Z"
        fill="white"/>
</svg>
