<?xml version="1.0" standalone="no"?><!DOCTYPE svg PUBLIC "-//W3C//DTD SVG 1.1//EN" "http://www.w3.org/Graphics/SVG/1.1/DTD/svg11.dtd">
<svg t="1714024758014"
     class="icon"
     viewBox="0 0 1024 1024"
     version="1.1"
     xmlns="http://www.w3.org/2000/svg"
     p-id="9443"
     xmlns:xlink="http://www.w3.org/1999/xlink"
     width="200"
     height="200">
    <path
        d="M248.54 101.035l384.366 1.855c17.017 0.082 33.216 7.367 44.637 20.074l213.364 237.38c10.006 11.133 15.587 25.59 15.675 40.606l2.729 463.71c0.248 42.506-33.76 77.168-76.117 77.42l-584.902-1.177c-42.142-0.085-76.26-34.518-76.26-76.964v-685.94c0-42.506 34.211-76.964 76.508-76.964z m2.538 79.63v680.623l579.166 1.168-2.669-453.941-203.177-226.05-373.32-1.8zM650.83 597.148c22.107 0 40.029 17.922 40.029 40.03 0 22.107-17.922 40.028-40.03 40.028H395.017c-22.108 0-40.03-17.921-40.03-40.029 0-22.107 17.922-40.029 40.03-40.029H650.83zM503.886 442.368c22.107 0 40.029 17.922 40.029 40.03 0 22.107-17.922 40.028-40.03 40.028h-108.87c-22.107 0-40.028-17.921-40.028-40.029 0-22.107 17.921-40.029 40.029-40.029h108.87z"
        fill="#2B313D"
        p-id="9444"></path>
</svg>